<svg xmlns="http://www.w3.org/2000/svg" width="30" height="66" viewBox="0 0 30 66">
  <path id="Icon_awesome-arrow-down" data-name="Icon awesome-arrow-down" d="M28.388,13.438l1.525,1.493a1.584,1.584,0,0,1,0,2.28L16.565,30.288a1.667,1.667,0,0,1-2.329,0L.882,17.212a1.584,1.584,0,0,1,0-2.28l1.525-1.493a1.675,1.675,0,0,1,2.356.027l7.886,8.105.069-55.194a1.628,1.628,0,0,1,1.649-1.614h2.2a1.628,1.628,0,0,1,1.649,1.614L18.145,21.57l6.673-6.858,1.213-1.247A1.663,1.663,0,0,1,28.388,13.438Z" transform="translate(-0.397 35.238)" fill="#004a5c"/>
</svg>
